<?xml version="1.0" encoding="utf-8"?>
<!-- Generator: Adobe Illustrator 25.0.0, SVG Export Plug-In . SVG Version: 6.00 Build 0)  -->
<svg version="1.1" id="Capa_1" xmlns="http://www.w3.org/2000/svg" xmlns:xlink="http://www.w3.org/1999/xlink" x="0px" y="0px"
	 viewBox="0 0 99 99" style="enable-background:new 0 0 99 99;" xml:space="preserve">
<g>
	<path d="M88.8,13.4c-7.3-8-18.8-11.9-29-11.3C48.4,2.9,37.6,7.6,29.3,16.5c-2.7,2.9-4.9,6-6.7,9.4c-4.8,1.7-9.3,4.3-13.2,7.9
		c-10,9.2-12.3,25.1-5.7,37.4c8.8,16.6,28.1,18.4,45,16.6c1.4,3.1,4.1,5.7,7.3,7.2c5.5,2.5,11.5,2.2,17.4,1.7c2.9-0.3,2.9-4.3,0-4.6
		c-1.9-0.2-4.4-0.3-5.7-1.8c-1-1.3-1-3.3,0.1-4.5c0.8-0.9,2.1-1.4,3.2-1.8c1.4-0.5,2.9-1,4.2-1.7c0.1-0.1,0.3-0.1,0.4-0.2
		c4.5-1.8,8.7-4.3,12.3-8c7.4-7.8,10.6-19,11-30C99.4,32.9,96,21.3,88.8,13.4z M36.2,70.2l0.2-12.5c0-1.2-0.5-2.3-1.5-2.9l-10.1-7.3
		c-2.4-1.7-1.8-5.4,1-6.2l11.9-3.6c1.1-0.3,2-1.2,2.3-2.3l3.8-11.9c0.9-2.8,4.6-3.3,6.2-0.9l7.1,10.2c0.7,1,1.8,1.5,2.9,1.5
		l12.5-0.1c2.9,0,4.6,3.3,2.8,5.7L68,49.8c-0.7,0.9-0.9,2.1-0.5,3.2l3.9,11.8c0.9,2.8-1.7,5.4-4.5,4.4l-11.8-4.1
		c-1.1-0.4-2.3-0.2-3.2,0.5l-10,7.4C39.5,74.8,36.1,73.1,36.2,70.2z"/>
</g>
</svg>
